HIERARCHY
ROOT Hips
{
  OFFSET -833.208 93.8648 -288.714
  CHANNELS 6 Xposition Yposition Zposition Zrotation Xrotation Yrotation
  JOINT RightUpLeg
  {
    OFFSET -9.46969 -1.50639 -0.0273469
    CHANNELS 3 Zrotation Xrotation Yrotation
    JOINT RightLeg
    {
      OFFSET -0.165549 -41.841 -0.0822336
      CHANNELS 3 Zrotation Xrotation Yrotation
      JOINT RightFoot
      {
        OFFSET 0.00858245 -41.8727 -0.048729
        CHANNELS 3 Zrotation Xrotation Yrotation
        End Site
        {
          OFFSET 0 -7.69 17.5
        }
      }
    }
  }
  JOINT LeftUpLeg
  {
    OFFSET 9.35343 -1.63104 -0.116667
    CHANNELS 3 Zrotation Xrotation Yrotation
    JOINT LeftLeg
    {
      OFFSET 0.0561996 -41.899 -0.0448442
      CHANNELS 3 Zrotation Xrotation Yrotation
      JOINT LeftFoot
      {
        OFFSET -0.691763 -41.9643 0.0380386
        CHANNELS 3 Zrotation Xrotation Yrotation
        End Site
        {
          OFFSET 0 -7.69 17.5
        }
      }
    }
  }
  JOINT Spine
  {
    OFFSET 0.141981 14.3078 0.0500503
    CHANNELS 3 Zrotation Xrotation Yrotation
    JOINT Spine1
    {
      OFFSET 0.111597 9.71388 0.0157612
      CHANNELS 3 Zrotation Xrotation Yrotation
      JOINT Spine2
      {
        OFFSET 0.0166731 10.1213 0.0585416
        CHANNELS 3 Zrotation Xrotation Yrotation
        JOINT Spine3
        {
          OFFSET 0.0152568 9.71316 0.0269802
          CHANNELS 3 Zrotation Xrotation Yrotation
          JOINT Neck
          {
            OFFSET 0.00889308 10.3794 0.0204106
            CHANNELS 3 Zrotation Xrotation Yrotation
            JOINT Head
            {
              OFFSET 0.0245936 9.4722 0.0132144
              CHANNELS 3 Zrotation Xrotation Yrotation
              End Site
              {
                OFFSET 0 15.95 0
              }
            }
          }
          JOINT RightShoulder
          {
            OFFSET -3.18516 6.93808 0.0716447
            CHANNELS 3 Zrotation Xrotation Yrotation
            JOINT RightArm
            {
              OFFSET -12.7291 -0.0150215 0.0732851
              CHANNELS 3 Zrotation Xrotation Yrotation
              JOINT RightForeArm
              {
                OFFSET -26.3167 -0.135893 0.277378
                CHANNELS 3 Zrotation Xrotation Yrotation
                JOINT RightHand
                {
                  OFFSET -25.8967 -0.28455 0.114449
                  CHANNELS 3 Zrotation Xrotation Yrotation
                  JOINT RightHandThumb1
                  {
                    OFFSET -2.48905 0.190105 3.12053
                    CHANNELS 3 Zrotation Xrotation Yrotation
                    JOINT RightHandThumb2
                    {
                      OFFSET -3.68274 0 0
                      CHANNELS 3 Zrotation Xrotation Yrotation
                      JOINT RightHandThumb3
                      {
                        OFFSET -2.55832 0 0
                        CHANNELS 3 Zrotation Xrotation Yrotation
                        End Site
                        {
                          OFFSET -2.194 0 0
                        }
                      }
                    }
                  }
                  JOINT RightInHandIndex
                  {
                    OFFSET -3.22368 0.508421 1.97842
                    CHANNELS 3 Zrotation Xrotation Yrotation
                    JOINT RightHandIndex1
                    {
                      OFFSET -5.21684 -0.091368 0.999158
                      CHANNELS 3 Zrotation Xrotation Yrotation
                      JOINT RightHandIndex2
                      {
                        OFFSET -3.61937 0 0
                        CHANNELS 3 Zrotation Xrotation Yrotation
                        JOINT RightHandIndex3
                        {
                          OFFSET -2.0521 0 0
                          CHANNELS 3 Zrotation Xrotation Yrotation
                          End Site
                          {
                            OFFSET -1.805 0 0
                          }
                        }
                      }
                    }
                  }
                  JOINT RightInHandMiddle
                  {
                    OFFSET -3.38211 0.517263 0.756737
                    CHANNELS 3 Zrotation Xrotation Yrotation
                    JOINT RightHandMiddle1
                    {
                      OFFSET -5.17411 -0.084 0.313895
                      CHANNELS 3 Zrotation Xrotation Yrotation
                      JOINT RightHandMiddle2
                      {
                        OFFSET -3.94947 0 0
                        CHANNELS 3 Zrotation Xrotation Yrotation
                        JOINT RightHandMiddle3
                        {
                          OFFSET -2.47579 0 0
                          CHANNELS 3 Zrotation Xrotation Yrotation
                          End Site
                          {
                            OFFSET -1.975 0 0
                          }
                        }
                      }
                    }
                  }
                  JOINT RightInHandRing
                  {
                    OFFSET -3.36516 0.537895 -0.128947
                    CHANNELS 3 Zrotation Xrotation Yrotation
                    JOINT RightHandRing1
                    {
                      OFFSET -4.63474 -0.022105 -0.478947
                      CHANNELS 3 Zrotation Xrotation Yrotation
                      JOINT RightHandRing2
                      {
                        OFFSET -3.44238 0 0
                        CHANNELS 3 Zrotation Xrotation Yrotation
                        JOINT RightHandRing3
                        {
                          OFFSET -2.3881 0 0
                          CHANNELS 3 Zrotation Xrotation Yrotation
                          End Site
                          {
                            OFFSET -1.857 0 0
                          }
                        }
                      }
                    }
                  }
                  JOINT RightInHandPinky
                  {
                    OFFSET -3.16105 0.469368 -1.20179
                    CHANNELS 3 Zrotation Xrotation Yrotation
                    JOINT RightHandPinky1
                    {
                      OFFSET -4.14105 -0.022105 -1.09053
                      CHANNELS 3 Zrotation Xrotation Yrotation
                      JOINT RightHandPinky2
                      {
                        OFFSET -2.75653 0 0
                        CHANNELS 3 Zrotation Xrotation Yrotation
                        JOINT RightHandPinky3
                        {
                          OFFSET -1.74189 0 0
                          CHANNELS 3 Zrotation Xrotation Yrotation
                          End Site
                          {
                            OFFSET -1.645 0 0
                          }
                        }
                      }
                    }
                  }
                }
              }
            }
          }
          JOINT LeftShoulder
          {
            OFFSET 3.16364 6.90788 0.0242835
            CHANNELS 3 Zrotation Xrotation Yrotation
            JOINT LeftArm
            {
              OFFSET 12.8435 -0.0470973 -0.123249
              CHANNELS 3 Zrotation Xrotation Yrotation
              JOINT LeftForeArm
              {
                OFFSET 26.4775 0.211768 -0.0017383
                CHANNELS 3 Zrotation Xrotation Yrotation
                JOINT LeftHand
                {
                  OFFSET 25.7971 0.0145167 0.204137
                  CHANNELS 3 Zrotation Xrotation Yrotation
                  JOINT LeftHandThumb1
                  {
                    OFFSET 2.48905 0.190105 3.12053
                    CHANNELS 3 Zrotation Xrotation Yrotation
                    JOINT LeftHandThumb2
                    {
                      OFFSET 3.68274 0 0
                      CHANNELS 3 Zrotation Xrotation Yrotation
                      JOINT LeftHandThumb3
                      {
                        OFFSET 2.55832 0 0
                        CHANNELS 3 Zrotation Xrotation Yrotation
                        End Site
                        {
                          OFFSET 2.194 0 0
                        }
                      }
                    }
                  }
                  JOINT LeftInHandIndex
                  {
                    OFFSET 3.22368 0.508421 1.97842
                    CHANNELS 3 Zrotation Xrotation Yrotation
                    JOINT LeftHandIndex1
                    {
                      OFFSET 5.21684 -0.091368 0.999158
                      CHANNELS 3 Zrotation Xrotation Yrotation
                      JOINT LeftHandIndex2
                      {
                        OFFSET 3.61937 0 0
                        CHANNELS 3 Zrotation Xrotation Yrotation
                        JOINT LeftHandIndex3
                        {
                          OFFSET 2.0521 0 0
                          CHANNELS 3 Zrotation Xrotation Yrotation
                          End Site
                          {
                            OFFSET 1.805 0 0
                          }
                        }
                      }
                    }
                  }
                  JOINT LeftInHandMiddle
                  {
                    OFFSET 3.38211 0.517263 0.756737
                    CHANNELS 3 Zrotation Xrotation Yrotation
                    JOINT LeftHandMiddle1
                    {
                      OFFSET 5.17411 -0.084 0.313895
                      CHANNELS 3 Zrotation Xrotation Yrotation
                      JOINT LeftHandMiddle2
                      {
                        OFFSET 3.94947 0 0
                        CHANNELS 3 Zrotation Xrotation Yrotation
                        JOINT LeftHandMiddle3
                        {
                          OFFSET 2.47579 0 0
                          CHANNELS 3 Zrotation Xrotation Yrotation
                          End Site
                          {
                            OFFSET 1.975 0 0
                          }
                        }
                      }
                    }
                  }
                  JOINT LeftInHandRing
                  {
                    OFFSET 3.36516 0.537895 -0.128947
                    CHANNELS 3 Zrotation Xrotation Yrotation
                    JOINT LeftHandRing1
                    {
                      OFFSET 4.63474 -0.022105 -0.478947
                      CHANNELS 3 Zrotation Xrotation Yrotation
                      JOINT LeftHandRing2
                      {
                        OFFSET 3.44238 0 0
                        CHANNELS 3 Zrotation Xrotation Yrotation
                        JOINT LeftHandRing3
                        {
                          OFFSET 2.3881 0 0
                          CHANNELS 3 Zrotation Xrotation Yrotation
                          End Site
                          {
                            OFFSET 1.857 0 0
                          }
                        }
                      }
                    }
                  }
                  JOINT LeftInHandPinky
                  {
                    OFFSET 3.16105 0.469368 -1.20179
                    CHANNELS 3 Zrotation Xrotation Yrotation
                    JOINT LeftHandPinky1
                    {
                      OFFSET 4.14105 -0.022105 -1.09053
                      CHANNELS 3 Zrotation Xrotation Yrotation
                      JOINT LeftHandPinky2
                      {
                        OFFSET 2.75653 0 0
                        CHANNELS 3 Zrotation Xrotation Yrotation
                        JOINT LeftHandPinky3
                        {
                          OFFSET 1.74189 0 0
                          CHANNELS 3 Zrotation Xrotation Yrotation
                          End Site
                          {
                            OFFSET 1.645 0 0
                          }
                        }
                      }
                    }
                  }
                }
              }
            }
          }
        }
      }
    }
  }
}
MOTION
Frames:	6
Frame Time:	0.00833333
-834.162 93.0724 -282.856 1.65071 -6.48329 -161.531 -14.0088 -5.43168 -1.72585 3.6516 -2.79323 -11.5475 14.0082 -4.33903 -8.6004 11.2256 -18.7724 -12.109 -0.467952 9.0731 15.7273 -8.61818 2.57974 9.15201 7.55326 11.1601 -17.8902 1.56018 3.27667 -4.25416 2.65983 5.47829 -6.80695 -0.490547 0.591145 0.45821 -0.492149 0.597357 0.455628 -9.76705 10.7984 8.48702 -2.31261 -12.0762 26.5402 45.1427 46.785 45.4963 45.1585 -66.7003 38.3001 50.519 56.3156 -71.8436 28.184 10.7294 19.1592 4.07085e-15 4.77083e-15 -10 -9.26825e-15 2.38542e-15 -10 3.18055e-15 0 -3.97569e-16 19.9818 0.871897 2.3964 24 -5.1684e-15 -1.27222e-14 20 -1.2921e-15 -6.36111e-15 3.18055e-15 0 -3.97569e-16 20 -3.97569e-15 -1.11319e-14 24 -1.98785e-15 -8.74653e-15 20 -1.2921e-15 -9.54166e-15 3.18055e-15 0 -3.97569e-16 19.9748 -1.02565 -2.81938 24 -5.56597e-15 -1.03368e-14 20 -5.96354e-16 -1.11319e-14 3.18055e-15 0 -3.97569e-16 19.7815 -3.00948 -8.30515 24 -5.56597e-15 -1.19271e-14 20 1.01877e-15 -3.18055e-15 -7.41627 -6.85013 19.6357 -60.3448 55.1934 -43.3718 -38.3386 -32.2803 -34.4247 21.9492 -29.506 6.81796 -28.184 10.7294 -19.1592 -1.04963e-14 0 10 -6.84111e-16 1.59028e-15 10 2.78299e-15 9.54166e-15 -1.59028e-15 -19.9818 0.871897 -2.3964 -24 -6.36111e-15 1.27222e-14 -20 -7.95139e-16 1.27222e-14 2.78299e-15 9.54166e-15 -1.59028e-15 -20 -3.18055e-15 3.18055e-15 -24 3.18055e-15 6.36111e-15 -20 1.59028e-15 -3.18055e-15 2.78299e-15 9.54166e-15 -1.59028e-15 -19.9748 -1.02565 2.81938 -24 3.18055e-15 -0 -20 1.59028e-15 3.18055e-15 2.78299e-15 9.54166e-15 -1.59028e-15 -19.7815 -3.00948 8.30515 -24 -6.36111e-15 7.95139e-15 -20 4.77083e-15 -0 
-834.105 93.1109 -282.798 1.61862 -6.55104 -161.498 -14.0495 -5.5697 -1.59069 3.67476 -2.72983 -11.5845 13.9607 -4.3645 -8.7519 11.0885 -18.9508 -12.1099 -0.671382 9.65359 15.8246 -8.32885 2.28774 8.9927 7.52664 11.1217 -17.9095 1.55449 3.26567 -4.26162 2.65052 5.46055 -6.81966 -0.48723 0.596434 0.456916 -0.488821 0.602633 0.45432 -9.71171 10.8938 8.46654 -2.23662 -12.0642 26.5829 45.1679 46.7549 45.4599 45.1193 -66.6318 38.2465 50.6499 56.2446 -72.0925 28.184 10.7294 19.1592 -5.3376e-15 6.36111e-15 -10 6.73965e-15 1.59028e-15 -10 0 0 -0 19.9818 0.871897 2.3964 24 -1.19271e-15 -1.59028e-14 20 -1.98785e-15 -1.59028e-14 0 0 -0 20 -2.38542e-15 -6.36111e-15 24 -5.1684e-15 -1.35174e-14 20 -2.5345e-15 -1.59028e-14 0 0 -0 19.9748 -1.02565 -2.81938 24 -2.78299e-15 -1.19271e-14 20 -2.88238e-15 -2.3059e-14 0 0 -0 19.7815 -3.00948 -8.30515 24 -5.96354e-16 -1.59028e-14 20 -1.16786e-15 -2.22639e-14 -7.30988 -6.80359 19.7002 -60.4334 55.1805 -43.3434 -38.3473 -32.2722 -34.4711 22.0398 -29.5477 6.85196 -28.184 10.7294 -19.1592 -7.28356e-15 2.38542e-15 10 -2.6688e-15 -3.18055e-15 10 1.59028e-15 0 -7.95139e-16 -19.9818 0.871897 -2.3964 -24 1.59028e-15 3.18055e-15 -20 3.97569e-15 6.36111e-15 1.59028e-15 0 -7.95139e-16 -20 -3.18055e-15 -3.18055e-15 -24 -3.18055e-15 3.18055e-15 -20 -7.95139e-16 -0 1.59028e-15 0 -7.95139e-16 -19.9748 -1.02565 2.81938 -24 6.36111e-15 -0 -20 -1.59028e-15 6.36111e-15 1.59028e-15 0 -7.95139e-16 -19.7815 -3.00948 8.30515 -24 -6.36111e-15 1.59028e-14 -20 -3.18055e-15 6.36111e-15 
-834.055 93.1458 -282.737 1.58853 -6.60086 -161.518 -14.0856 -5.71938 -1.43536 3.70086 -2.64554 -11.5965 13.9163 -4.39134 -8.89383 10.9463 -19.1126 -12.2432 -0.861774 10.2201 16.0143 -8.05144 1.986 8.83719 7.51629 11.1016 -17.881 1.55303 3.25934 -4.25519 2.64796 5.45037 -6.81018 -0.484908 0.600303 0.453318 -0.486489 0.606467 0.450689 -9.668 10.9643 8.40071 -2.18652 -12.0803 26.5645 45.1721 46.7452 45.4494 45.1031 -66.5744 38.2145 50.7906 56.1664 -72.349 28.184 10.7294 19.1592 -3.51003e-15 -1.59028e-15 -10 5.89842e-15 -3.18055e-15 -10 -3.18055e-15 7.95139e-16 -1.19271e-15 19.9818 0.871897 2.3964 24 -1.19271e-15 4.77083e-15 20 -1.2921e-15 6.36111e-15 -3.18055e-15 7.95139e-16 -1.19271e-15 20 0 5.56597e-15 24 2.38542e-15 6.36111e-15 20 1.19271e-15 1.59028e-15 -3.18055e-15 7.95139e-16 -1.19271e-15 19.9748 -1.02565 -2.81938 24 4.77083e-15 3.97569e-15 20 1.2424e-15 3.18055e-15 -3.18055e-15 7.95139e-16 -1.19271e-15 19.7815 -3.00948 -8.30515 24 -5.96354e-16 3.97569e-15 20 3.52843e-15 6.36111e-15 -7.21319 -6.78509 19.7009 -60.627 55.1301 -43.2242 -38.3395 -32.2336 -34.4846 22.1223 -29.5766 6.88145 -28.184 10.7294 -19.1592 -1.45769e-15 -3.18055e-15 10 4.19414e-15 -3.18055e-15 10 1.59028e-15 0 -0 -19.9818 0.871897 -2.3964 -24 3.18055e-15 -0 -20 -3.97569e-15 1.27222e-14 1.59028e-15 0 -0 -20 3.18055e-15 -3.18055e-15 -24 -3.18055e-15 1.59028e-14 -20 1.59028e-15 9.54166e-15 1.59028e-15 0 -0 -19.9748 -1.02565 2.81938 -24 -6.36111e-15 -0 -20 1.59028e-15 6.36111e-15 1.59028e-15 0 -0 -19.7815 -3.00948 8.30515 -24 3.18055e-15 -4.77083e-15 -20 1.59028e-15 -9.54166e-15 
-834.011 93.1772 -282.672 1.56063 -6.63126 -161.594 -14.1153 -5.88047 -1.26027 3.72961 -2.53975 -11.582 13.8747 -4.41913 -9.02593 10.7974 -19.2588 -12.521 -1.04205 10.7735 16.3049 -7.78772 1.67928 8.68501 7.52538 11.102 -17.8001 1.55659 3.25837 -4.23347 2.65341 5.44886 -6.77623 -0.483665 0.602579 0.446992 -0.485233 0.608679 0.444306 -9.63634 11.0078 8.28131 -2.16725 -12.1278 26.4767 45.1545 46.7563 45.4662 45.1105 -66.5281 38.2056 50.9427 56.081 -72.6138 28.184 10.7294 19.1592 1.05301e-14 4.77083e-15 -10 7.01022e-16 3.97569e-15 -10 0 7.95139e-16 -0 19.9818 0.871897 2.3964 24 -5.1684e-15 1.59028e-15 20 -4.47266e-16 -4.77083e-15 0 7.95139e-16 -0 20 -7.95139e-16 -2.38542e-15 24 3.97569e-16 7.95139e-16 20 -5.96354e-16 -6.36111e-15 0 7.95139e-16 -0 19.9748 -1.02565 -2.81938 24 -3.97569e-16 -6.36111e-15 20 1.49089e-15 -3.97569e-15 0 7.95139e-16 -0 19.7815 -3.00948 -8.30515 24 -3.97569e-15 -2.78299e-15 20 -2.5345e-15 -1.19271e-15 -7.12785 -6.79841 19.6285 -60.9331 55.0398 -43.008 -38.3142 -32.1622 -34.4638 22.1964 -29.5915 6.90629 -28.184 10.7294 -19.1592 -3.91373e-15 1.59028e-15 10 5.93224e-15 -1.59028e-15 10 7.95139e-16 3.18055e-15 -1.19271e-15 -19.9818 0.871897 -2.3964 -24 3.18055e-15 1.27222e-14 -20 -1.59028e-15 -6.36111e-15 7.95139e-16 3.18055e-15 -1.19271e-15 -20 3.18055e-15 -3.18055e-15 -24 -3.18055e-15 3.18055e-15 -20 -1.59028e-15 3.18055e-15 7.95139e-16 3.18055e-15 -1.19271e-15 -19.9748 -1.02565 2.81938 -24 6.36111e-15 3.18055e-15 -20 3.18055e-15 9.54166e-15 7.95139e-16 3.18055e-15 -1.19271e-15 -19.7815 -3.00948 8.30515 -24 -9.54166e-15 4.77083e-15 -20 1.59028e-15 6.36111e-15 
-833.984 93.2024 -282.613 1.53814 -6.64358 -161.712 -14.1311 -6.0462 -1.07847 3.7583 -2.41523 -11.5792 13.8395 -4.44466 -9.1089 10.65 -19.3331 -12.8517 -1.15239 11.1772 16.6078 -7.54596 1.34031 8.57938 7.5304 11.1074 -17.7117 1.55909 3.25833 -4.20982 2.65718 5.44885 -6.73928 -0.482258 0.605157 0.441802 -0.483814 0.611288 0.439074 -9.60298 11.0429 8.1834 -2.13515 -12.1693 26.3994 45.1281 46.7754 45.4929 45.1267 -66.4902 38.1964 51.0925 55.988 -72.8818 28.184 10.7294 19.1592 1.40401e-14 6.36111e-15 -10 -8.84763e-15 4.77083e-15 -10 3.18055e-15 0 -1.19271e-15 19.9818 0.871897 2.3964 24 -3.97569e-15 -0 20 -1.44119e-15 -3.18055e-15 3.18055e-15 0 -1.19271e-15 20 -1.59028e-15 -3.18055e-15 24 -1.59028e-15 -3.97569e-15 20 -2.88238e-15 -1.11319e-14 3.18055e-15 0 -1.19271e-15 19.9748 -1.02565 -2.81938 24 -3.97569e-16 -0 20 -2.83268e-15 -7.15625e-15 3.18055e-15 0 -1.19271e-15 19.7815 -3.00948 -8.30515 24 1.98785e-16 -5.96354e-15 20 -2.23633e-15 -1.19271e-14 -7.04704 -6.80813 19.5678 -61.2361 54.9339 -42.7866 -38.2902 -32.0864 -34.4259 22.2648 -29.6069 6.92874 -28.184 10.7294 -19.1592 -9.02166e-15 7.95139e-16 10 6.45924e-15 0 10 -2.38542e-15 -6.36111e-15 -0 -19.9818 0.871897 -2.3964 -24 3.18055e-15 -3.18055e-15 -20 -2.38542e-15 -0 -2.38542e-15 -6.36111e-15 -0 -20 -3.18055e-15 9.54166e-15 -24 1.59028e-15 -6.36111e-15 -20 -3.18055e-15 -6.36111e-15 -2.38542e-15 -6.36111e-15 -0 -19.9748 -1.02565 2.81938 -24 0 -0 -20 -1.59028e-15 3.18055e-15 -2.38542e-15 -6.36111e-15 -0 -19.7815 -3.00948 8.30515 -24 -3.18055e-15 -3.18055e-15 -20 0 -0 
-833.976 93.2209 -282.56 1.52121 -6.63812 -161.874 -14.1327 -6.22425 -0.892709 3.78715 -2.26406 -11.5896 13.8112 -4.46828 -9.13851 10.5034 -19.3326 -13.2357 -1.18529 11.4243 16.9122 -7.30854 0.936226 8.51755 7.52171 11.1237 -17.6123 1.55802 3.25983 -4.18368 2.65519 5.45098 -6.69877 -0.479797 0.608493 0.437714 -0.481336 0.614728 0.434966 -9.55128 11.0682 8.10672 -2.0723 -12.2065 26.3329 45.0919 46.802 45.5285 45.154 -66.4617 38.1875 51.2394 55.887 -73.1535 28.184 10.7294 19.1592 -2.6688e-15 3.18055e-15 -10 0 0 -10 2.20695e-32 1.59028e-15 -7.95139e-16 19.9818 0.871897 2.3964 24 -1.98785e-15 -1.59028e-15 20 -5.96354e-16 3.18055e-15 2.20695e-32 1.59028e-15 -7.95139e-16 20 3.18055e-15 -3.18055e-15 24 -3.97569e-15 -0 20 -8.44835e-16 -0 2.20695e-32 1.59028e-15 -7.95139e-16 19.9748 -1.02565 -2.81938 24 5.1684e-15 -1.59028e-15 20 -1.9133e-15 -7.95139e-15 2.20695e-32 1.59028e-15 -7.95139e-16 19.7815 -3.00948 -8.30515 24 3.37934e-15 -3.57812e-15 20 -8.19987e-16 -9.54166e-15 -6.9591 -6.81644 19.519 -61.5267 54.8131 -42.5656 -38.2677 -32.0079 -34.3701 22.3275 -29.6236 6.94952 -28.184 10.7294 -19.1592 -1.35131e-15 7.95139e-16 10 -7.54705e-15 1.59028e-15 10 -4.96962e-15 0 -1.19271e-15 -19.9818 0.871897 -2.3964 -24 -1.59028e-15 1.27222e-14 -20 3.97569e-15 -0 -4.96962e-15 0 -1.19271e-15 -20 3.18055e-15 -4.77083e-15 -24 -1.59028e-15 -6.36111e-15 -20 -1.59028e-15 3.18055e-15 -4.96962e-15 0 -1.19271e-15 -19.9748 -1.02565 2.81938 -24 0 9.54166e-15 -20 -7.95139e-15 9.54166e-15 -4.96962e-15 0 -1.19271e-15 -19.7815 -3.00948 8.30515 -24 -6.36111e-15 -3.18055e-15 -20 -4.77083e-15 9.54166e-15 
